<svg xmlns="http://www.w3.org/2000/svg" xmlns:svg="http://www.w3.org/2000/svg" id="svg4557" width="512" height="512" version="1.1" viewBox="0 0 135.467 135.467"><metadata id="metadata4579"/><g id="g4559" transform="translate(-0.26458333,-161.533)"><rect id="rect4561" width="114.252" height="135.514" x="10.465" y="161.516" rx="12.45" style="fill:#444;fill-opacity:.23529412;stroke-width:.30709922"/><g id="g4563" transform="matrix(1.1710748,0,0,1.1710748,-11.485859,-38.758728)" style="fill:#444;stroke:#999;stroke-width:1.16445792;stroke-linejoin:round;stroke-miterlimit:4;stroke-dasharray:none"><path id="path4565" d="m 52.793,242.687 q 0.68,4.906 2.672,7.334 3.643,4.42 12.483,4.42 5.294,0 8.597,-1.163 6.265,-2.235 6.265,-8.306 0,-3.545 -3.108,-5.49 -3.11,-1.892 -9.763,-3.35 l -7.58,-1.7 q -11.17,-2.525 -15.445,-5.49 -7.237,-4.952 -7.237,-15.492 0,-9.617 6.993,-15.98 6.996,-6.363 20.547,-6.363 11.316,0 19.282,6.023 8.013,5.974 8.402,17.39 l -14.373,0 q -0.39,-6.46 -5.635,-9.18 -3.497,-1.798 -8.694,-1.798 -5.78,0 -9.23,2.33 -3.45,2.33 -3.45,6.51 0,3.836 3.4,5.73 2.187,1.263 9.327,2.963 l 12.337,2.963 q 8.11,1.943 12.24,5.197 6.41,5.05 6.41,14.62 0,9.81 -7.527,16.32 -7.48,6.46 -21.177,6.46 -13.988,0 -22.002,-6.363 -8.015,-6.412 -8.015,-17.583 l 14.28,0 z m 14.523,-51.68 z" style="stroke-width:1.16445792;stroke-miterlimit:4;stroke-dasharray:none"/></g><g id="g4567" transform="matrix(1.6113069,0,0,1.6113069,0.26458333,-139.4189)" style="fill:#59f"><path id="path4569" d="m 5.78,239.793 q 0,-4.606 -1.535,-6.322 Q 2.8,231.756 0,231.756 l 0,-5.87 q 2.8,0 4.245,-1.807 1.535,-1.806 1.535,-5.78 l 0,-22.306 q 0,-4.245 1.626,-6.683 1.716,-2.53 5.51,-2.53 l 6.682,0 0,5.87 -3.522,0 q -2.077,0 -2.98,1.174 -0.813,1.084 -0.813,3.974 l 0,22.036 q 0,3.974 -1.536,6.05 -1.445,2.078 -3.522,2.53 l 0,0.54 q 2.077,0.362 3.522,2.8 1.536,2.35 1.536,6.142 l 0,21.946 q 0,2.8 0.812,3.973 0.904,1.174 3.07,1.174 l 3.435,0 0,5.87 -6.683,0 q -7.135,0 -7.135,-9.122 l 0,-21.945 z"/></g><g id="g4571" transform="matrix(1.6112997,0,0,1.6112997,-82.982706,-139.41755)" style="fill:#f55"><path id="path4573" d="m 129.97,261.738 q 0,9.122 -7.135,9.122 l -6.683,0 0,-5.87 3.432,0 q 2.167,0 2.98,-1.175 0.903,-1.174 0.903,-3.973 l 0,-21.946 q 0,-3.793 1.445,-6.14 1.535,-2.44 3.612,-2.8 l 0,-0.543 q -2.077,-0.45 -3.612,-2.528 -1.445,-2.078 -1.445,-6.05 l 0,-22.037 q 0,-2.89 -0.903,-3.974 -0.813,-1.174 -2.89,-1.174 l -3.522,0 0,-5.87 6.683,0 q 3.793,0 5.42,2.53 1.714,2.437 1.714,6.682 l 0,22.308 q 0,3.972 1.444,5.778 1.536,1.807 4.335,1.807 l 0,5.87 q -2.8,0 -4.336,1.716 -1.445,1.717 -1.445,6.323 l 0,21.945 z"/></g></g></svg>